solid CHANCEEXTRUDE
facet normal 0.0 0.0 -1.0
  outer loop
    vertex 53.63121602886172 373.0630364853401 0.0
    vertex 16.231216028861716 269.1630364853401 0.0
    vertex 16.231216028861716 373.0630364853401 0.0
  endloop
endfacet
facet normal 0.0 0.0 -1.0
  outer loop
    vertex 16.231216028861716 269.1630364853401 0.0
    vertex 53.63121602886172 373.0630364853401 0.0
    vertex 53.63121602886172 269.1630364853401 0.0
  endloop
endfacet
facet normal -1.0 0.0 0.0
  outer loop
    vertex 16.231216028861716 373.0630364853401 200.0
    vertex 16.231216028861716 269.1630364853401 0.0
    vertex 16.231216028861716 269.1630364853401 200.0
  endloop
endfacet
facet normal -1.0 0.0 0.0
  outer loop
    vertex 16.231216028861716 269.1630364853401 0.0
    vertex 16.231216028861716 373.0630364853401 200.0
    vertex 16.231216028861716 373.0630364853401 0.0
  endloop
endfacet
facet normal 0.0 0.0 1.0
  outer loop
    vertex 53.63121602886172 269.1630364853401 200.0
    vertex 16.231216028861716 373.0630364853401 200.0
    vertex 16.231216028861716 269.1630364853401 200.0
  endloop
endfacet
facet normal 0.0 0.0 1.0
  outer loop
    vertex 16.231216028861716 373.0630364853401 200.0
    vertex 53.63121602886172 269.1630364853401 200.0
    vertex 53.63121602886172 373.0630364853401 200.0
  endloop
endfacet
facet normal -0.0 -1.0 -0.0
  outer loop
    vertex 53.63121602886172 269.1630364853401 200.0
    vertex 16.231216028861716 269.1630364853401 0.0
    vertex 53.63121602886172 269.1630364853401 0.0
  endloop
endfacet
facet normal -0.0 -1.0 -0.0
  outer loop
    vertex 16.231216028861716 269.1630364853401 0.0
    vertex 53.63121602886172 269.1630364853401 200.0
    vertex 16.231216028861716 269.1630364853401 200.0
  endloop
endfacet
facet normal 0.0 1.0 0.0
  outer loop
    vertex 16.231216028861716 373.0630364853401 200.0
    vertex 53.63121602886172 373.0630364853401 0.0
    vertex 16.231216028861716 373.0630364853401 0.0
  endloop
endfacet
facet normal 0.0 1.0 0.0
  outer loop
    vertex 53.63121602886172 373.0630364853401 0.0
    vertex 16.231216028861716 373.0630364853401 200.0
    vertex 53.63121602886172 373.0630364853401 200.0
  endloop
endfacet
facet normal 1.0 0.0 0.0
  outer loop
    vertex 53.63121602886172 373.0630364853401 0.0
    vertex 53.63121602886172 269.1630364853401 200.0
    vertex 53.63121602886172 269.1630364853401 0.0
  endloop
endfacet
facet normal 1.0 0.0 0.0
  outer loop
    vertex 53.63121602886172 269.1630364853401 200.0
    vertex 53.63121602886172 373.0630364853401 0.0
    vertex 53.63121602886172 373.0630364853401 200.0
  endloop
endfacet
endsolid CHANCEEXTRUDE
