solid CHANCEEXTRUDE
facet normal -0.9994922959385665 -0.03186142431614408 -0.0
  outer loop
    vertex 9.93432575008938 465.86042724531524 200.0
    vertex 10.15058077061345 459.076511221124 0.0
    vertex 10.15058077061345 459.076511221124 200.0
  endloop
endfacet
facet normal -0.9994922959385665 -0.03186142431614408 -0.0
  outer loop
    vertex 10.15058077061345 459.076511221124 0.0
    vertex 9.93432575008938 465.86042724531524 200.0
    vertex 9.93432575008938 465.86042724531524 0.0
  endloop
endfacet
facet normal -0.9736817652411281 0.227911869012829 0.0
  outer loop
    vertex 11.481246108137352 472.46915785436835 200.0
    vertex 9.93432575008938 465.86042724531524 0.0
    vertex 9.93432575008938 465.86042724531524 200.0
  endloop
endfacet
facet normal -0.9736817652411281 0.227911869012829 0.0
  outer loop
    vertex 9.93432575008938 465.86042724531524 0.0
    vertex 11.481246108137352 472.46915785436835 200.0
    vertex 11.481246108137352 472.46915785436835 0.0
  endloop
endfacet
facet normal 0.7292772093940812 -0.6842183510096622 0.0
  outer loop
    vertex 56.92794278307178 448.12722944926213 0.0
    vertex 52.283905150844326 443.1773610340782 200.0
    vertex 52.283905150844326 443.1773610340782 0.0
  endloop
endfacet
facet normal 0.7292772093940812 -0.6842183510096622 0.0
  outer loop
    vertex 52.283905150844326 443.1773610340782 200.0
    vertex 56.92794278307178 448.12722944926213 0.0
    vertex 56.92794278307178 448.12722944926213 200.0
  endloop
endfacet
facet normal -0.684218351009667 -0.7292772093940769 -0.0
  outer loop
    vertex 20.644382516188394 442.16876871183683 200.0
    vertex 15.694514101004525 446.8128063440643 0.0
    vertex 20.644382516188394 442.16876871183683 0.0
  endloop
endfacet
facet normal -0.684218351009667 -0.7292772093940769 -0.0
  outer loop
    vertex 15.694514101004525 446.8128063440643 0.0
    vertex 20.644382516188394 442.16876871183683 200.0
    vertex 15.694514101004525 446.8128063440643 200.0
  endloop
endfacet
facet normal 0.22791186901282634 0.9736817652411287 0.0
  outer loop
    vertex 38.37758031224147 489.1623857448193 200.0
    vertex 44.98631092129463 487.6154653867713 0.0
    vertex 38.37758031224147 489.1623857448193 0.0
  endloop
endfacet
facet normal 0.22791186901282634 0.9736817652411287 0.0
  outer loop
    vertex 44.98631092129463 487.6154653867713 0.0
    vertex 38.37758031224147 489.1623857448193 200.0
    vertex 44.98631092129463 487.6154653867713 200.0
  endloop
endfacet
facet normal 0.47215334511074436 0.8815164313277063 0.0
  outer loop
    vertex 44.98631092129463 487.6154653867713 200.0
    vertex 50.96948204564654 484.41078971614553 0.0
    vertex 44.98631092129463 487.6154653867713 0.0
  endloop
endfacet
facet normal 0.47215334511074436 0.8815164313277063 0.0
  outer loop
    vertex 50.96948204564654 484.41078971614553 0.0
    vertex 44.98631092129463 487.6154653867713 200.0
    vertex 50.96948204564654 484.41078971614553 200.0
  endloop
endfacet
facet normal -0.8815164313277053 0.4721533451107462 0.0
  outer loop
    vertex 14.685921778763161 478.45232897872023 200.0
    vertex 11.481246108137352 472.46915785436835 0.0
    vertex 11.481246108137352 472.46915785436835 200.0
  endloop
endfacet
facet normal -0.8815164313277053 0.4721533451107462 0.0
  outer loop
    vertex 11.481246108137352 472.46915785436835 0.0
    vertex 14.685921778763161 478.45232897872023 200.0
    vertex 14.685921778763161 478.45232897872023 0.0
  endloop
endfacet
facet normal -0.7292772093940811 0.6842183510096624 0.0
  outer loop
    vertex 19.329959410990618 483.40219739390415 200.0
    vertex 14.685921778763161 478.45232897872023 0.0
    vertex 14.685921778763161 478.45232897872023 200.0
  endloop
endfacet
facet normal -0.7292772093940811 0.6842183510096624 0.0
  outer loop
    vertex 14.685921778763161 478.45232897872023 0.0
    vertex 19.329959410990618 483.40219739390415 200.0
    vertex 19.329959410990618 483.40219739390415 0.0
  endloop
endfacet
facet normal -0.9571890784069071 -0.28946341423146366 -0.0
  outer loop
    vertex 10.15058077061345 459.076511221124 200.0
    vertex 12.115273747439172 452.57972244789215 0.0
    vertex 12.115273747439172 452.57972244789215 200.0
  endloop
endfacet
facet normal -0.9571890784069071 -0.28946341423146366 -0.0
  outer loop
    vertex 12.115273747439172 452.57972244789215 0.0
    vertex 10.15058077061345 459.076511221124 200.0
    vertex 10.15058077061345 459.076511221124 0.0
  endloop
endfacet
facet normal -0.2894634142314647 0.9571890784069069 0.0
  outer loop
    vertex 25.096875514818457 486.98143774746944 200.0
    vertex 31.59366428805028 488.9461307242952 0.0
    vertex 25.096875514818457 486.98143774746944 0.0
  endloop
endfacet
facet normal -0.2894634142314647 0.9571890784069069 0.0
  outer loop
    vertex 31.59366428805028 488.9461307242952 0.0
    vertex 25.096875514818457 486.98143774746944 200.0
    vertex 31.59366428805028 488.9461307242952 200.0
  endloop
endfacet
facet normal -0.5273389508278156 0.8496550070115629 0.0
  outer loop
    vertex 19.329959410990618 483.40219739390415 200.0
    vertex 25.096875514818457 486.98143774746944 0.0
    vertex 19.329959410990618 483.40219739390415 0.0
  endloop
endfacet
facet normal -0.5273389508278156 0.8496550070115629 0.0
  outer loop
    vertex 25.096875514818457 486.98143774746944 0.0
    vertex 19.329959410990618 483.40219739390415 200.0
    vertex 25.096875514818457 486.98143774746944 200.0
  endloop
endfacet
facet normal 0.8815164313277047 -0.4721533451107472 0.0
  outer loop
    vertex 60.132618453697596 454.110400573614 0.0
    vertex 56.92794278307178 448.12722944926213 200.0
    vertex 56.92794278307178 448.12722944926213 0.0
  endloop
endfacet
facet normal 0.8815164313277047 -0.4721533451107472 0.0
  outer loop
    vertex 56.92794278307178 448.12722944926213 200.0
    vertex 60.132618453697596 454.110400573614 0.0
    vertex 60.132618453697596 454.110400573614 200.0
  endloop
endfacet
facet normal 0.9571890784069074 0.2894634142314633 0.0
  outer loop
    vertex 59.49859081439577 473.9998359800902 0.0
    vertex 61.46328379122149 467.50304720685835 200.0
    vertex 61.46328379122149 467.50304720685835 0.0
  endloop
endfacet
facet normal 0.9571890784069074 0.2894634142314633 0.0
  outer loop
    vertex 61.46328379122149 467.50304720685835 200.0
    vertex 59.49859081439577 473.9998359800902 0.0
    vertex 59.49859081439577 473.9998359800902 200.0
  endloop
endfacet
facet normal 0.9994922959385665 0.03186142431614408 0.0
  outer loop
    vertex 61.46328379122149 467.50304720685835 0.0
    vertex 61.67953881174556 460.7191311826672 200.0
    vertex 61.67953881174556 460.7191311826672 0.0
  endloop
endfacet
facet normal 0.9994922959385665 0.03186142431614408 0.0
  outer loop
    vertex 61.67953881174556 460.7191311826672 200.0
    vertex 61.46328379122149 467.50304720685835 0.0
    vertex 61.46328379122149 467.50304720685835 200.0
  endloop
endfacet
facet normal 0.9736817652411285 -0.22791186901282784 0.0
  outer loop
    vertex 61.67953881174556 460.7191311826672 0.0
    vertex 60.132618453697596 454.110400573614 200.0
    vertex 60.132618453697596 454.110400573614 0.0
  endloop
endfacet
facet normal 0.9736817652411285 -0.22791186901282784 0.0
  outer loop
    vertex 60.132618453697596 454.110400573614 200.0
    vertex 61.67953881174556 460.7191311826672 0.0
    vertex 61.67953881174556 460.7191311826672 200.0
  endloop
endfacet
facet normal 0.8496550070115603 0.5273389508278197 0.0
  outer loop
    vertex 55.91935046083042 479.76675208391805 0.0
    vertex 59.49859081439577 473.9998359800902 200.0
    vertex 59.49859081439577 473.9998359800902 0.0
  endloop
endfacet
facet normal 0.8496550070115603 0.5273389508278197 0.0
  outer loop
    vertex 59.49859081439577 473.9998359800902 200.0
    vertex 55.91935046083042 479.76675208391805 0.0
    vertex 55.91935046083042 479.76675208391805 200.0
  endloop
endfacet
facet normal 0.2894634142314644 -0.9571890784069068 0.0
  outer loop
    vertex 46.51698904701648 439.5981206805129 200.0
    vertex 40.020200273784646 437.6334277036872 0.0
    vertex 46.51698904701648 439.5981206805129 0.0
  endloop
endfacet
facet normal 0.2894634142314644 -0.9571890784069068 0.0
  outer loop
    vertex 40.020200273784646 437.6334277036872 0.0
    vertex 46.51698904701648 439.5981206805129 200.0
    vertex 40.020200273784646 437.6334277036872 200.0
  endloop
endfacet
facet normal 0.6842183510096657 0.729277209394078 0.0
  outer loop
    vertex 50.96948204564654 484.41078971614553 200.0
    vertex 55.91935046083042 479.76675208391805 0.0
    vertex 50.96948204564654 484.41078971614553 0.0
  endloop
endfacet
facet normal 0.6842183510096657 0.729277209394078 0.0
  outer loop
    vertex 55.91935046083042 479.76675208391805 0.0
    vertex 50.96948204564654 484.41078971614553 200.0
    vertex 55.91935046083042 479.76675208391805 200.0
  endloop
endfacet
facet normal 0.527338950827815 -0.8496550070115633 0.0
  outer loop
    vertex 52.283905150844326 443.1773610340782 200.0
    vertex 46.51698904701648 439.5981206805129 0.0
    vertex 52.283905150844326 443.1773610340782 0.0
  endloop
endfacet
facet normal 0.527338950827815 -0.8496550070115633 0.0
  outer loop
    vertex 46.51698904701648 439.5981206805129 0.0
    vertex 52.283905150844326 443.1773610340782 200.0
    vertex 46.51698904701648 439.5981206805129 200.0
  endloop
endfacet
facet normal 0.03186142431614745 -0.9994922959385663 0.0
  outer loop
    vertex 40.020200273784646 437.6334277036872 200.0
    vertex 33.23628424959347 437.4171726831631 0.0
    vertex 40.020200273784646 437.6334277036872 0.0
  endloop
endfacet
facet normal 0.03186142431614745 -0.9994922959385663 0.0
  outer loop
    vertex 33.23628424959347 437.4171726831631 0.0
    vertex 40.020200273784646 437.6334277036872 200.0
    vertex 33.23628424959347 437.4171726831631 200.0
  endloop
endfacet
facet normal -0.03186142431614739 0.9994922959385663 0.0
  outer loop
    vertex 31.59366428805028 488.9461307242952 200.0
    vertex 38.37758031224147 489.1623857448193 0.0
    vertex 31.59366428805028 488.9461307242952 0.0
  endloop
endfacet
facet normal -0.03186142431614739 0.9994922959385663 0.0
  outer loop
    vertex 38.37758031224147 489.1623857448193 0.0
    vertex 31.59366428805028 488.9461307242952 200.0
    vertex 38.37758031224147 489.1623857448193 200.0
  endloop
endfacet
facet normal -0.47215334511074347 -0.8815164313277067 -0.0
  outer loop
    vertex 26.62755364054031 438.9640930412111 200.0
    vertex 20.644382516188394 442.16876871183683 0.0
    vertex 26.62755364054031 438.9640930412111 0.0
  endloop
endfacet
facet normal -0.47215334511074347 -0.8815164313277067 -0.0
  outer loop
    vertex 20.644382516188394 442.16876871183683 0.0
    vertex 26.62755364054031 438.9640930412111 200.0
    vertex 20.644382516188394 442.16876871183683 200.0
  endloop
endfacet
facet normal -0.22791186901282653 -0.9736817652411287 -0.0
  outer loop
    vertex 33.23628424959347 437.4171726831631 200.0
    vertex 26.62755364054031 438.9640930412111 0.0
    vertex 33.23628424959347 437.4171726831631 0.0
  endloop
endfacet
facet normal -0.22791186901282653 -0.9736817652411287 -0.0
  outer loop
    vertex 26.62755364054031 438.9640930412111 0.0
    vertex 33.23628424959347 437.4171726831631 200.0
    vertex 26.62755364054031 438.9640930412111 200.0
  endloop
endfacet
facet normal 0.0 0.0 1.0
  outer loop
    vertex 10.15058077061345 459.076511221124 200.0
    vertex 11.481246108137352 472.46915785436835 200.0
    vertex 9.93432575008938 465.86042724531524 200.0
  endloop
endfacet
facet normal 0.0 0.0 1.0
  outer loop
    vertex 11.481246108137352 472.46915785436835 200.0
    vertex 10.15058077061345 459.076511221124 200.0
    vertex 12.115273747439172 452.57972244789215 200.0
  endloop
endfacet
facet normal 0.0 0.0 1.0
  outer loop
    vertex 11.481246108137352 472.46915785436835 200.0
    vertex 12.115273747439172 452.57972244789215 200.0
    vertex 14.685921778763161 478.45232897872023 200.0
  endloop
endfacet
facet normal 0.0 0.0 1.0
  outer loop
    vertex 14.685921778763161 478.45232897872023 200.0
    vertex 12.115273747439172 452.57972244789215 200.0
    vertex 15.694514101004525 446.8128063440643 200.0
  endloop
endfacet
facet normal 0.0 0.0 1.0
  outer loop
    vertex 14.685921778763161 478.45232897872023 200.0
    vertex 15.694514101004525 446.8128063440643 200.0
    vertex 19.329959410990618 483.40219739390415 200.0
  endloop
endfacet
facet normal 0.0 0.0 1.0
  outer loop
    vertex 19.329959410990618 483.40219739390415 200.0
    vertex 15.694514101004525 446.8128063440643 200.0
    vertex 20.644382516188394 442.16876871183683 200.0
  endloop
endfacet
facet normal 0.0 0.0 1.0
  outer loop
    vertex 19.329959410990618 483.40219739390415 200.0
    vertex 20.644382516188394 442.16876871183683 200.0
    vertex 25.096875514818457 486.98143774746944 200.0
  endloop
endfacet
facet normal 0.0 0.0 1.0
  outer loop
    vertex 25.096875514818457 486.98143774746944 200.0
    vertex 20.644382516188394 442.16876871183683 200.0
    vertex 26.62755364054031 438.9640930412111 200.0
  endloop
endfacet
facet normal 0.0 0.0 1.0
  outer loop
    vertex 25.096875514818457 486.98143774746944 200.0
    vertex 26.62755364054031 438.9640930412111 200.0
    vertex 31.59366428805028 488.9461307242952 200.0
  endloop
endfacet
facet normal 0.0 0.0 1.0
  outer loop
    vertex 31.59366428805028 488.9461307242952 200.0
    vertex 26.62755364054031 438.9640930412111 200.0
    vertex 33.23628424959347 437.4171726831631 200.0
  endloop
endfacet
facet normal 0.0 0.0 1.0
  outer loop
    vertex 31.59366428805028 488.9461307242952 200.0
    vertex 33.23628424959347 437.4171726831631 200.0
    vertex 38.37758031224147 489.1623857448193 200.0
  endloop
endfacet
facet normal 0.0 0.0 1.0
  outer loop
    vertex 38.37758031224147 489.1623857448193 200.0
    vertex 33.23628424959347 437.4171726831631 200.0
    vertex 40.020200273784646 437.6334277036872 200.0
  endloop
endfacet
facet normal 0.0 0.0 1.0
  outer loop
    vertex 38.37758031224147 489.1623857448193 200.0
    vertex 40.020200273784646 437.6334277036872 200.0
    vertex 44.98631092129463 487.6154653867713 200.0
  endloop
endfacet
facet normal 0.0 0.0 1.0
  outer loop
    vertex 44.98631092129463 487.6154653867713 200.0
    vertex 40.020200273784646 437.6334277036872 200.0
    vertex 46.51698904701648 439.5981206805129 200.0
  endloop
endfacet
facet normal 0.0 0.0 1.0
  outer loop
    vertex 44.98631092129463 487.6154653867713 200.0
    vertex 46.51698904701648 439.5981206805129 200.0
    vertex 50.96948204564654 484.41078971614553 200.0
  endloop
endfacet
facet normal 0.0 0.0 1.0
  outer loop
    vertex 50.96948204564654 484.41078971614553 200.0
    vertex 46.51698904701648 439.5981206805129 200.0
    vertex 52.283905150844326 443.1773610340782 200.0
  endloop
endfacet
facet normal 0.0 0.0 1.0
  outer loop
    vertex 50.96948204564654 484.41078971614553 200.0
    vertex 52.283905150844326 443.1773610340782 200.0
    vertex 55.91935046083042 479.76675208391805 200.0
  endloop
endfacet
facet normal 0.0 0.0 1.0
  outer loop
    vertex 55.91935046083042 479.76675208391805 200.0
    vertex 52.283905150844326 443.1773610340782 200.0
    vertex 56.92794278307178 448.12722944926213 200.0
  endloop
endfacet
facet normal 0.0 0.0 1.0
  outer loop
    vertex 55.91935046083042 479.76675208391805 200.0
    vertex 56.92794278307178 448.12722944926213 200.0
    vertex 59.49859081439577 473.9998359800902 200.0
  endloop
endfacet
facet normal 0.0 0.0 1.0
  outer loop
    vertex 59.49859081439577 473.9998359800902 200.0
    vertex 56.92794278307178 448.12722944926213 200.0
    vertex 60.132618453697596 454.110400573614 200.0
  endloop
endfacet
facet normal 0.0 0.0 1.0
  outer loop
    vertex 59.49859081439577 473.9998359800902 200.0
    vertex 60.132618453697596 454.110400573614 200.0
    vertex 61.46328379122149 467.50304720685835 200.0
  endloop
endfacet
facet normal 0.0 0.0 1.0
  outer loop
    vertex 61.46328379122149 467.50304720685835 200.0
    vertex 60.132618453697596 454.110400573614 200.0
    vertex 61.67953881174556 460.7191311826672 200.0
  endloop
endfacet
facet normal -0.8496550070115599 -0.5273389508278203 -0.0
  outer loop
    vertex 12.115273747439172 452.57972244789215 200.0
    vertex 15.694514101004525 446.8128063440643 0.0
    vertex 15.694514101004525 446.8128063440643 200.0
  endloop
endfacet
facet normal -0.8496550070115599 -0.5273389508278203 -0.0
  outer loop
    vertex 15.694514101004525 446.8128063440643 0.0
    vertex 12.115273747439172 452.57972244789215 200.0
    vertex 12.115273747439172 452.57972244789215 0.0
  endloop
endfacet
facet normal 0.0 0.0 -1.0
  outer loop
    vertex 11.481246108137352 472.46915785436835 0.0
    vertex 10.15058077061345 459.076511221124 0.0
    vertex 9.93432575008938 465.86042724531524 0.0
  endloop
endfacet
facet normal 0.0 0.0 -1.0
  outer loop
    vertex 10.15058077061345 459.076511221124 0.0
    vertex 11.481246108137352 472.46915785436835 0.0
    vertex 12.115273747439172 452.57972244789215 0.0
  endloop
endfacet
facet normal 0.0 0.0 -1.0
  outer loop
    vertex 12.115273747439172 452.57972244789215 0.0
    vertex 11.481246108137352 472.46915785436835 0.0
    vertex 14.685921778763161 478.45232897872023 0.0
  endloop
endfacet
facet normal 0.0 0.0 -1.0
  outer loop
    vertex 12.115273747439172 452.57972244789215 0.0
    vertex 14.685921778763161 478.45232897872023 0.0
    vertex 15.694514101004525 446.8128063440643 0.0
  endloop
endfacet
facet normal 0.0 0.0 -1.0
  outer loop
    vertex 15.694514101004525 446.8128063440643 0.0
    vertex 14.685921778763161 478.45232897872023 0.0
    vertex 19.329959410990618 483.40219739390415 0.0
  endloop
endfacet
facet normal 0.0 0.0 -1.0
  outer loop
    vertex 15.694514101004525 446.8128063440643 0.0
    vertex 19.329959410990618 483.40219739390415 0.0
    vertex 20.644382516188394 442.16876871183683 0.0
  endloop
endfacet
facet normal 0.0 0.0 -1.0
  outer loop
    vertex 20.644382516188394 442.16876871183683 0.0
    vertex 19.329959410990618 483.40219739390415 0.0
    vertex 25.096875514818457 486.98143774746944 0.0
  endloop
endfacet
facet normal 0.0 0.0 -1.0
  outer loop
    vertex 20.644382516188394 442.16876871183683 0.0
    vertex 25.096875514818457 486.98143774746944 0.0
    vertex 26.62755364054031 438.9640930412111 0.0
  endloop
endfacet
facet normal 0.0 0.0 -1.0
  outer loop
    vertex 26.62755364054031 438.9640930412111 0.0
    vertex 25.096875514818457 486.98143774746944 0.0
    vertex 31.59366428805028 488.9461307242952 0.0
  endloop
endfacet
facet normal 0.0 0.0 -1.0
  outer loop
    vertex 26.62755364054031 438.9640930412111 0.0
    vertex 31.59366428805028 488.9461307242952 0.0
    vertex 33.23628424959347 437.4171726831631 0.0
  endloop
endfacet
facet normal 0.0 0.0 -1.0
  outer loop
    vertex 33.23628424959347 437.4171726831631 0.0
    vertex 31.59366428805028 488.9461307242952 0.0
    vertex 38.37758031224147 489.1623857448193 0.0
  endloop
endfacet
facet normal 0.0 0.0 -1.0
  outer loop
    vertex 33.23628424959347 437.4171726831631 0.0
    vertex 38.37758031224147 489.1623857448193 0.0
    vertex 40.020200273784646 437.6334277036872 0.0
  endloop
endfacet
facet normal 0.0 0.0 -1.0
  outer loop
    vertex 40.020200273784646 437.6334277036872 0.0
    vertex 38.37758031224147 489.1623857448193 0.0
    vertex 44.98631092129463 487.6154653867713 0.0
  endloop
endfacet
facet normal 0.0 0.0 -1.0
  outer loop
    vertex 40.020200273784646 437.6334277036872 0.0
    vertex 44.98631092129463 487.6154653867713 0.0
    vertex 46.51698904701648 439.5981206805129 0.0
  endloop
endfacet
facet normal 0.0 0.0 -1.0
  outer loop
    vertex 46.51698904701648 439.5981206805129 0.0
    vertex 44.98631092129463 487.6154653867713 0.0
    vertex 50.96948204564654 484.41078971614553 0.0
  endloop
endfacet
facet normal 0.0 0.0 -1.0
  outer loop
    vertex 46.51698904701648 439.5981206805129 0.0
    vertex 50.96948204564654 484.41078971614553 0.0
    vertex 52.283905150844326 443.1773610340782 0.0
  endloop
endfacet
facet normal 0.0 0.0 -1.0
  outer loop
    vertex 52.283905150844326 443.1773610340782 0.0
    vertex 50.96948204564654 484.41078971614553 0.0
    vertex 55.91935046083042 479.76675208391805 0.0
  endloop
endfacet
facet normal 0.0 0.0 -1.0
  outer loop
    vertex 52.283905150844326 443.1773610340782 0.0
    vertex 55.91935046083042 479.76675208391805 0.0
    vertex 56.92794278307178 448.12722944926213 0.0
  endloop
endfacet
facet normal 0.0 0.0 -1.0
  outer loop
    vertex 56.92794278307178 448.12722944926213 0.0
    vertex 55.91935046083042 479.76675208391805 0.0
    vertex 59.49859081439577 473.9998359800902 0.0
  endloop
endfacet
facet normal 0.0 0.0 -1.0
  outer loop
    vertex 56.92794278307178 448.12722944926213 0.0
    vertex 59.49859081439577 473.9998359800902 0.0
    vertex 60.132618453697596 454.110400573614 0.0
  endloop
endfacet
facet normal 0.0 0.0 -1.0
  outer loop
    vertex 60.132618453697596 454.110400573614 0.0
    vertex 59.49859081439577 473.9998359800902 0.0
    vertex 61.46328379122149 467.50304720685835 0.0
  endloop
endfacet
facet normal 0.0 0.0 -1.0
  outer loop
    vertex 60.132618453697596 454.110400573614 0.0
    vertex 61.46328379122149 467.50304720685835 0.0
    vertex 61.67953881174556 460.7191311826672 0.0
  endloop
endfacet
endsolid CHANCEEXTRUDE
