solid CHANCEEXTRUDE
facet normal -0.9805074831948158 0.19648174316960845 0.0
  outer loop
    vertex 19.815127562879752 627.4059059679591 200.0
    vertex 15.200743857631922 604.3786379870246 0.0
    vertex 15.200743857631922 604.3786379870246 200.0
  endloop
endfacet
facet normal -0.9805074831948158 0.19648174316960845 0.0
  outer loop
    vertex 15.200743857631922 604.3786379870246 0.0
    vertex 19.815127562879752 627.4059059679591 200.0
    vertex 19.815127562879752 627.4059059679591 0.0
  endloop
endfacet
facet normal -0.9986866802900846 0.051233920513370945 0.0
  outer loop
    vertex 15.200743857631922 604.3786379870246 200.0
    vertex 13.997512635437483 580.9244306401333 0.0
    vertex 13.997512635437483 580.9244306401333 200.0
  endloop
endfacet
facet normal -0.9986866802900846 0.051233920513370945 0.0
  outer loop
    vertex 13.997512635437483 580.9244306401333 0.0
    vertex 15.200743857631922 604.3786379870246 200.0
    vertex 15.200743857631922 604.3786379870246 0.0
  endloop
endfacet
facet normal 0.0 0.0 1.0
  outer loop
    vertex 16.231216028861716 557.5458469192312 200.0
    vertex 15.200743857631922 604.3786379870246 200.0
    vertex 13.997512635437483 580.9244306401333 200.0
  endloop
endfacet
facet normal 0.0 0.0 1.0
  outer loop
    vertex 15.200743857631922 604.3786379870246 200.0
    vertex 16.231216028861716 557.5458469192312 200.0
    vertex 19.815127562879752 627.4059059679591 200.0
  endloop
endfacet
facet normal 0.0 0.0 1.0
  outer loop
    vertex 19.815127562879752 627.4059059679591 200.0
    vertex 16.231216028861716 557.5458469192312 200.0
    vertex 53.63121602886172 557.5458469192312 200.0
  endloop
endfacet
facet normal 0.0 0.0 1.0
  outer loop
    vertex 19.815127562879752 627.4059059679591 200.0
    vertex 53.63121602886172 557.5458469192312 200.0
    vertex 27.74178944489582 649.5128197971942 200.0
  endloop
endfacet
facet normal 0.0 0.0 1.0
  outer loop
    vertex 27.74178944489582 649.5128197971942 200.0
    vertex 53.63121602886172 557.5458469192312 200.0
    vertex 38.81088164428965 670.2256854976796 200.0
  endloop
endfacet
facet normal 0.0 0.0 1.0
  outer loop
    vertex 38.81088164428965 670.2256854976796 200.0
    vertex 53.63121602886172 557.5458469192312 200.0
    vertex 53.21965823214443 575.5360503852305 200.0
  endloop
endfacet
facet normal 0.0 0.0 1.0
  outer loop
    vertex 38.81088164428965 670.2256854976796 200.0
    vertex 53.21965823214443 575.5360503852305 200.0
    vertex 52.78522214882896 689.1006799376318 200.0
  endloop
endfacet
facet normal 0.0 0.0 1.0
  outer loop
    vertex 1555.118400099823 269.1630364853401 200.0
    vertex 1512.218400099823 708.3630364853401 200.0
    vertex 1512.218400099823 269.1630364853401 200.0
  endloop
endfacet
facet normal 0.0 0.0 1.0
  outer loop
    vertex 52.78522214882896 689.1006799376318 200.0
    vertex 55.12795434975699 593.4294907055154 200.0
    vertex 69.3653769904176 705.7333608121623 200.0
  endloop
endfacet
facet normal 0.0 0.0 1.0
  outer loop
    vertex 55.12795434975699 593.4294907055154 200.0
    vertex 52.78522214882896 689.1006799376318 200.0
    vertex 53.21965823214443 575.5360503852305 200.0
  endloop
endfacet
facet normal 0.0 0.0 1.0
  outer loop
    vertex 69.3653769904176 705.7333608121623 200.0
    vertex 55.12795434975699 593.4294907055154 200.0
    vertex 59.3243339883443 610.9282677626969 200.0
  endloop
endfacet
facet normal 0.0 0.0 1.0
  outer loop
    vertex 69.3653769904176 705.7333608121623 200.0
    vertex 59.3243339883443 610.9282677626969 200.0
    vertex 65.73893344564644 627.7410520166649 200.0
  endloop
endfacet
facet normal 0.0 0.0 1.0
  outer loop
    vertex 69.3653769904176 705.7333608121623 200.0
    vertex 65.73893344564644 627.7410520166649 200.0
    vertex 74.26495884093785 643.5879347235866 200.0
  endloop
endfacet
facet normal 0.0 0.0 1.0
  outer loop
    vertex 69.3653769904176 705.7333608121623 200.0
    vertex 74.26495884093785 643.5879347235866 200.0
    vertex 88.1960763404542 719.7673327956587 200.0
  endloop
endfacet
facet normal 0.0 0.0 1.0
  outer loop
    vertex 88.1960763404542 719.7673327956587 200.0
    vertex 74.26495884093785 643.5879347235866 200.0
    vertex 84.76046407997077 658.205088015029 200.0
  endloop
endfacet
facet normal 0.0 0.0 1.0
  outer loop
    vertex 88.1960763404542 719.7673327956587 200.0
    vertex 84.76046407997077 658.205088015029 200.0
    vertex 97.05071405385628 671.3491572535676 200.0
  endloop
endfacet
facet normal 0.0 0.0 1.0
  outer loop
    vertex 88.1960763404542 719.7673327956587 200.0
    vertex 97.05071405385628 671.3491572535676 200.0
    vertex 108.87382702324469 730.9018841716859 200.0
  endloop
endfacet
facet normal 0.0 0.0 1.0
  outer loop
    vertex 108.87382702324469 730.9018841716859 200.0
    vertex 97.05071405385628 671.3491572535676 200.0
    vertex 110.93109372801041 682.8013125384657 200.0
  endloop
endfacet
facet normal 0.0 0.0 1.0
  outer loop
    vertex 108.87382702324469 730.9018841716859 200.0
    vertex 110.93109372801041 682.8013125384657 200.0
    vertex 130.95555833099866 738.8984303071865 200.0
  endloop
endfacet
facet normal 0.0 0.0 1.0
  outer loop
    vertex 130.95555833099866 738.8984303071865 200.0
    vertex 110.93109372801041 682.8013125384657 200.0
    vertex 126.17051468900789 692.3708919096608 200.0
  endloop
endfacet
facet normal 0.0 0.0 1.0
  outer loop
    vertex 130.95555833099866 738.8984303071865 200.0
    vertex 126.17051468900789 692.3708919096608 200.0
    vertex 142.51526243522355 699.8985755959397 200.0
  endloop
endfacet
facet normal 0.0 0.0 1.0
  outer loop
    vertex 130.95555833099866 738.8984303071865 200.0
    vertex 142.51526243522355 699.8985755959397 200.0
    vertex 153.96811588295904 743.5856259039948 200.0
  endloop
endfacet
facet normal 0.0 0.0 1.0
  outer loop
    vertex 153.96811588295904 743.5856259039948 200.0
    vertex 142.51526243522355 699.8985755959397 200.0
    vertex 159.69322035939035 705.259038460623 200.0
  endloop
endfacet
facet normal 0.0 0.0 1.0
  outer loop
    vertex 153.96811588295904 743.5856259039948 200.0
    vertex 159.69322035939035 705.259038460623 200.0
    vertex 177.418400099823 744.8630364853401 200.0
  endloop
endfacet
facet normal 0.0 0.0 1.0
  outer loop
    vertex 177.418400099823 744.8630364853401 200.0
    vertex 159.69322035939035 705.259038460623 200.0
    vertex 177.418400099823 708.3630364853401 200.0
  endloop
endfacet
facet normal 0.0 0.0 1.0
  outer loop
    vertex 177.418400099823 744.8630364853401 200.0
    vertex 177.418400099823 708.3630364853401 200.0
    vertex 1512.218400099823 708.3630364853401 200.0
  endloop
endfacet
facet normal 0.0 0.0 1.0
  outer loop
    vertex 177.418400099823 744.8630364853401 200.0
    vertex 1512.218400099823 708.3630364853401 200.0
    vertex 1555.118400099823 744.8630364853401 200.0
  endloop
endfacet
facet normal 0.0 0.0 1.0
  outer loop
    vertex 1555.118400099823 744.8630364853401 200.0
    vertex 1512.218400099823 708.3630364853401 200.0
    vertex 1555.118400099823 269.1630364853401 200.0
  endloop
endfacet
facet normal 0.0 0.0 -1.0
  outer loop
    vertex 52.78522214882896 689.1006799376318 0.0
    vertex 55.12795434975699 593.4294907055154 0.0
    vertex 53.21965823214443 575.5360503852305 0.0
  endloop
endfacet
facet normal 0.0 0.0 -1.0
  outer loop
    vertex 55.12795434975699 593.4294907055154 0.0
    vertex 52.78522214882896 689.1006799376318 0.0
    vertex 69.3653769904176 705.7333608121623 0.0
  endloop
endfacet
facet normal 0.0 0.0 -1.0
  outer loop
    vertex 55.12795434975699 593.4294907055154 0.0
    vertex 69.3653769904176 705.7333608121623 0.0
    vertex 59.3243339883443 610.9282677626969 0.0
  endloop
endfacet
facet normal 0.0 0.0 -1.0
  outer loop
    vertex 59.3243339883443 610.9282677626969 0.0
    vertex 69.3653769904176 705.7333608121623 0.0
    vertex 65.73893344564644 627.7410520166649 0.0
  endloop
endfacet
facet normal 0.0 0.0 -1.0
  outer loop
    vertex 65.73893344564644 627.7410520166649 0.0
    vertex 69.3653769904176 705.7333608121623 0.0
    vertex 74.26495884093785 643.5879347235866 0.0
  endloop
endfacet
facet normal 0.0 0.0 -1.0
  outer loop
    vertex 74.26495884093785 643.5879347235866 0.0
    vertex 69.3653769904176 705.7333608121623 0.0
    vertex 88.1960763404542 719.7673327956587 0.0
  endloop
endfacet
facet normal 0.0 0.0 -1.0
  outer loop
    vertex 74.26495884093785 643.5879347235866 0.0
    vertex 88.1960763404542 719.7673327956587 0.0
    vertex 84.76046407997077 658.205088015029 0.0
  endloop
endfacet
facet normal 0.0 0.0 -1.0
  outer loop
    vertex 84.76046407997077 658.205088015029 0.0
    vertex 88.1960763404542 719.7673327956587 0.0
    vertex 97.05071405385628 671.3491572535676 0.0
  endloop
endfacet
facet normal 0.0 0.0 -1.0
  outer loop
    vertex 97.05071405385628 671.3491572535676 0.0
    vertex 88.1960763404542 719.7673327956587 0.0
    vertex 108.87382702324469 730.9018841716859 0.0
  endloop
endfacet
facet normal 0.0 0.0 -1.0
  outer loop
    vertex 97.05071405385628 671.3491572535676 0.0
    vertex 108.87382702324469 730.9018841716859 0.0
    vertex 110.93109372801041 682.8013125384657 0.0
  endloop
endfacet
facet normal 0.0 0.0 -1.0
  outer loop
    vertex 110.93109372801041 682.8013125384657 0.0
    vertex 108.87382702324469 730.9018841716859 0.0
    vertex 130.95555833099866 738.8984303071865 0.0
  endloop
endfacet
facet normal 0.0 0.0 -1.0
  outer loop
    vertex 110.93109372801041 682.8013125384657 0.0
    vertex 130.95555833099866 738.8984303071865 0.0
    vertex 126.17051468900789 692.3708919096608 0.0
  endloop
endfacet
facet normal 0.0 0.0 -1.0
  outer loop
    vertex 126.17051468900789 692.3708919096608 0.0
    vertex 130.95555833099866 738.8984303071865 0.0
    vertex 142.51526243522355 699.8985755959397 0.0
  endloop
endfacet
facet normal 0.0 0.0 -1.0
  outer loop
    vertex 142.51526243522355 699.8985755959397 0.0
    vertex 130.95555833099866 738.8984303071865 0.0
    vertex 153.96811588295904 743.5856259039948 0.0
  endloop
endfacet
facet normal 0.0 0.0 -1.0
  outer loop
    vertex 142.51526243522355 699.8985755959397 0.0
    vertex 153.96811588295904 743.5856259039948 0.0
    vertex 159.69322035939035 705.259038460623 0.0
  endloop
endfacet
facet normal 0.0 0.0 -1.0
  outer loop
    vertex 159.69322035939035 705.259038460623 0.0
    vertex 153.96811588295904 743.5856259039948 0.0
    vertex 177.418400099823 744.8630364853401 0.0
  endloop
endfacet
facet normal 0.0 0.0 -1.0
  outer loop
    vertex 159.69322035939035 705.259038460623 0.0
    vertex 177.418400099823 744.8630364853401 0.0
    vertex 177.418400099823 708.3630364853401 0.0
  endloop
endfacet
facet normal 0.0 0.0 -1.0
  outer loop
    vertex 177.418400099823 708.3630364853401 0.0
    vertex 177.418400099823 744.8630364853401 0.0
    vertex 1555.118400099823 744.8630364853401 0.0
  endloop
endfacet
facet normal 0.0 0.0 -1.0
  outer loop
    vertex 177.418400099823 708.3630364853401 0.0
    vertex 1555.118400099823 744.8630364853401 0.0
    vertex 1512.218400099823 708.3630364853401 0.0
  endloop
endfacet
facet normal 0.0 0.0 -1.0
  outer loop
    vertex 1512.218400099823 708.3630364853401 0.0
    vertex 1555.118400099823 744.8630364853401 0.0
    vertex 1512.218400099823 269.1630364853401 0.0
  endloop
endfacet
facet normal 0.0 0.0 -1.0
  outer loop
    vertex 1512.218400099823 269.1630364853401 0.0
    vertex 1555.118400099823 744.8630364853401 0.0
    vertex 1555.118400099823 269.1630364853401 0.0
  endloop
endfacet
facet normal 0.0 0.0 -1.0
  outer loop
    vertex 15.200743857631922 604.3786379870246 0.0
    vertex 16.231216028861716 557.5458469192312 0.0
    vertex 13.997512635437483 580.9244306401333 0.0
  endloop
endfacet
facet normal 0.0 0.0 -1.0
  outer loop
    vertex 16.231216028861716 557.5458469192312 0.0
    vertex 15.200743857631922 604.3786379870246 0.0
    vertex 19.815127562879752 627.4059059679591 0.0
  endloop
endfacet
facet normal 0.0 0.0 -1.0
  outer loop
    vertex 16.231216028861716 557.5458469192312 0.0
    vertex 19.815127562879752 627.4059059679591 0.0
    vertex 53.63121602886172 557.5458469192312 0.0
  endloop
endfacet
facet normal 0.0 0.0 -1.0
  outer loop
    vertex 53.63121602886172 557.5458469192312 0.0
    vertex 19.815127562879752 627.4059059679591 0.0
    vertex 27.74178944489582 649.5128197971942 0.0
  endloop
endfacet
facet normal 0.0 0.0 -1.0
  outer loop
    vertex 53.63121602886172 557.5458469192312 0.0
    vertex 27.74178944489582 649.5128197971942 0.0
    vertex 38.81088164428965 670.2256854976796 0.0
  endloop
endfacet
facet normal 0.0 0.0 -1.0
  outer loop
    vertex 53.63121602886172 557.5458469192312 0.0
    vertex 38.81088164428965 670.2256854976796 0.0
    vertex 53.21965823214443 575.5360503852305 0.0
  endloop
endfacet
facet normal 0.0 0.0 -1.0
  outer loop
    vertex 53.21965823214443 575.5360503852305 0.0
    vertex 38.81088164428965 670.2256854976796 0.0
    vertex 52.78522214882896 689.1006799376318 0.0
  endloop
endfacet
facet normal -0.995466605236026 -0.09511171252722918 -0.0
  outer loop
    vertex 13.997512635437483 580.9244306401333 200.0
    vertex 16.231216028861716 557.5458469192312 0.0
    vertex 16.231216028861716 557.5458469192312 200.0
  endloop
endfacet
facet normal -0.995466605236026 -0.09511171252722918 -0.0
  outer loop
    vertex 16.231216028861716 557.5458469192312 0.0
    vertex 13.997512635437483 580.9244306401333 200.0
    vertex 13.997512635437483 580.9244306401333 0.0
  endloop
endfacet
facet normal 0.2978877217692337 -0.9546009141097318 0.0
  outer loop
    vertex 159.69322035939035 705.259038460623 200.0
    vertex 142.51526243522355 699.8985755959397 0.0
    vertex 159.69322035939035 705.259038460623 0.0
  endloop
endfacet
facet normal 0.2978877217692337 -0.9546009141097318 0.0
  outer loop
    vertex 142.51526243522355 699.8985755959397 0.0
    vertex 159.69322035939035 705.259038460623 200.0
    vertex 142.51526243522355 699.8985755959397 200.0
  endloop
endfacet
facet normal 0.880631375661668 -0.4738020474842191 0.0
  outer loop
    vertex 74.26495884093785 643.5879347235866 0.0
    vertex 65.73893344564644 627.7410520166649 200.0
    vertex 65.73893344564644 627.7410520166649 0.0
  endloop
endfacet
facet normal 0.880631375661668 -0.4738020474842191 0.0
  outer loop
    vertex 65.73893344564644 627.7410520166649 200.0
    vertex 74.26495884093785 643.5879347235866 0.0
    vertex 74.26495884093785 643.5879347235866 200.0
  endloop
endfacet
facet normal 0.8122937519868074 -0.5832485409181878 0.0
  outer loop
    vertex 84.76046407997077 658.205088015029 0.0
    vertex 74.26495884093785 643.5879347235866 200.0
    vertex 74.26495884093785 643.5879347235866 0.0
  endloop
endfacet
facet normal 0.8122937519868074 -0.5832485409181878 0.0
  outer loop
    vertex 74.26495884093785 643.5879347235866 200.0
    vertex 84.76046407997077 658.205088015029 0.0
    vertex 84.76046407997077 658.205088015029 200.0
  endloop
endfacet
facet normal 0.9997384292985442 0.02287078887314073 0.0
  outer loop
    vertex 53.21965823214443 575.5360503852305 0.0
    vertex 53.63121602886172 557.5458469192312 200.0
    vertex 53.63121602886172 557.5458469192312 0.0
  endloop
endfacet
facet normal 0.9997384292985442 0.02287078887314073 0.0
  outer loop
    vertex 53.63121602886172 557.5458469192312 200.0
    vertex 53.21965823214443 575.5360503852305 0.0
    vertex 53.21965823214443 575.5360503852305 200.0
  endloop
endfacet
facet normal 0.7304326023862485 -0.6829847826791259 0.0
  outer loop
    vertex 97.05071405385628 671.3491572535676 0.0
    vertex 84.76046407997077 658.205088015029 200.0
    vertex 84.76046407997077 658.205088015029 0.0
  endloop
endfacet
facet normal 0.7304326023862485 -0.6829847826791259 0.0
  outer loop
    vertex 84.76046407997077 658.205088015029 200.0
    vertex 97.05071405385628 671.3491572535676 0.0
    vertex 97.05071405385628 671.3491572535676 200.0
  endloop
endfacet
facet normal 0.6364107975902288 -0.7713503073899493 0.0
  outer loop
    vertex 110.93109372801041 682.8013125384657 200.0
    vertex 97.05071405385628 671.3491572535676 0.0
    vertex 110.93109372801041 682.8013125384657 0.0
  endloop
endfacet
facet normal 0.6364107975902288 -0.7713503073899493 0.0
  outer loop
    vertex 97.05071405385628 671.3491572535676 0.0
    vertex 110.93109372801041 682.8013125384657 200.0
    vertex 97.05071405385628 671.3491572535676 200.0
  endloop
endfacet
facet normal -0.0 -1.0 -0.0
  outer loop
    vertex 53.63121602886172 557.5458469192312 200.0
    vertex 16.231216028861716 557.5458469192312 0.0
    vertex 53.63121602886172 557.5458469192312 0.0
  endloop
endfacet
facet normal -0.0 -1.0 -0.0
  outer loop
    vertex 16.231216028861716 557.5458469192312 0.0
    vertex 53.63121602886172 557.5458469192312 200.0
    vertex 16.231216028861716 557.5458469192312 200.0
  endloop
endfacet
facet normal 0.4183229322002961 -0.908298367495696 0.0
  outer loop
    vertex 142.51526243522355 699.8985755959397 200.0
    vertex 126.17051468900789 692.3708919096608 0.0
    vertex 142.51526243522355 699.8985755959397 0.0
  endloop
endfacet
facet normal 0.4183229322002961 -0.908298367495696 0.0
  outer loop
    vertex 126.17051468900789 692.3708919096608 0.0
    vertex 142.51526243522355 699.8985755959397 200.0
    vertex 126.17051468900789 692.3708919096608 200.0
  endloop
endfacet
facet normal 0.5317936657963706 -0.8468739558038482 0.0
  outer loop
    vertex 126.17051468900789 692.3708919096608 200.0
    vertex 110.93109372801041 682.8013125384657 0.0
    vertex 126.17051468900789 692.3708919096608 0.0
  endloop
endfacet
facet normal 0.5317936657963706 -0.8468739558038482 0.0
  outer loop
    vertex 110.93109372801041 682.8013125384657 0.0
    vertex 126.17051468900789 692.3708919096608 200.0
    vertex 110.93109372801041 682.8013125384657 200.0
  endloop
endfacet
facet normal -0.597570435196983 0.8018164222429524 0.0
  outer loop
    vertex 69.3653769904176 705.7333608121623 200.0
    vertex 88.1960763404542 719.7673327956587 0.0
    vertex 69.3653769904176 705.7333608121623 0.0
  endloop
endfacet
facet normal -0.597570435196983 0.8018164222429524 0.0
  outer loop
    vertex 88.1960763404542 719.7673327956587 0.0
    vertex 69.3653769904176 705.7333608121623 200.0
    vertex 88.1960763404542 719.7673327956587 200.0
  endloop
endfacet
facet normal -0.47411229830872165 0.8804643823530977 0.0
  outer loop
    vertex 88.1960763404542 719.7673327956587 200.0
    vertex 108.87382702324469 730.9018841716859 0.0
    vertex 88.1960763404542 719.7673327956587 0.0
  endloop
endfacet
facet normal -0.47411229830872165 0.8804643823530977 0.0
  outer loop
    vertex 108.87382702324469 730.9018841716859 0.0
    vertex 88.1960763404542 719.7673327956587 200.0
    vertex 108.87382702324469 730.9018841716859 200.0
  endloop
endfacet
facet normal -0.0 -1.0 -0.0
  outer loop
    vertex 1512.218400099823 708.3630364853401 200.0
    vertex 177.418400099823 708.3630364853401 0.0
    vertex 1512.218400099823 708.3630364853401 0.0
  endloop
endfacet
facet normal -0.0 -1.0 -0.0
  outer loop
    vertex 177.418400099823 708.3630364853401 0.0
    vertex 1512.218400099823 708.3630364853401 200.0
    vertex 177.418400099823 708.3630364853401 200.0
  endloop
endfacet
facet normal -1.0 0.0 0.0
  outer loop
    vertex 1512.218400099823 708.3630364853401 200.0
    vertex 1512.218400099823 269.1630364853401 0.0
    vertex 1512.218400099823 269.1630364853401 200.0
  endloop
endfacet
facet normal -1.0 0.0 0.0
  outer loop
    vertex 1512.218400099823 269.1630364853401 0.0
    vertex 1512.218400099823 708.3630364853401 200.0
    vertex 1512.218400099823 708.3630364853401 0.0
  endloop
endfacet
facet normal 0.9724292403282327 -0.23319814011834714 0.0
  outer loop
    vertex 59.3243339883443 610.9282677626969 0.0
    vertex 55.12795434975699 593.4294907055154 200.0
    vertex 55.12795434975699 593.4294907055154 0.0
  endloop
endfacet
facet normal 0.9724292403282327 -0.23319814011834714 0.0
  outer loop
    vertex 55.12795434975699 593.4294907055154 200.0
    vertex 59.3243339883443 610.9282677626969 0.0
    vertex 59.3243339883443 610.9282677626969 200.0
  endloop
endfacet
facet normal 0.9943611785357418 -0.10604643615421795 0.0
  outer loop
    vertex 55.12795434975699 593.4294907055154 0.0
    vertex 53.21965823214443 575.5360503852305 200.0
    vertex 53.21965823214443 575.5360503852305 0.0
  endloop
endfacet
facet normal 0.9943611785357418 -0.10604643615421795 0.0
  outer loop
    vertex 53.21965823214443 575.5360503852305 200.0
    vertex 55.12795434975699 593.4294907055154 0.0
    vertex 55.12795434975699 593.4294907055154 200.0
  endloop
endfacet
facet normal 0.9343077499909489 -0.3564674295175517 0.0
  outer loop
    vertex 65.73893344564644 627.7410520166649 0.0
    vertex 59.3243339883443 610.9282677626969 200.0
    vertex 59.3243339883443 610.9282677626969 0.0
  endloop
endfacet
facet normal 0.9343077499909489 -0.3564674295175517 0.0
  outer loop
    vertex 59.3243339883443 610.9282677626969 200.0
    vertex 65.73893344564644 627.7410520166649 0.0
    vertex 65.73893344564644 627.7410520166649 200.0
  endloop
endfacet
facet normal -0.0 -1.0 -0.0
  outer loop
    vertex 1555.118400099823 269.1630364853401 200.0
    vertex 1512.218400099823 269.1630364853401 0.0
    vertex 1555.118400099823 269.1630364853401 0.0
  endloop
endfacet
facet normal -0.0 -1.0 -0.0
  outer loop
    vertex 1512.218400099823 269.1630364853401 0.0
    vertex 1555.118400099823 269.1630364853401 200.0
    vertex 1512.218400099823 269.1630364853401 200.0
  endloop
endfacet
facet normal -0.8037025195067232 0.5950313102169877 0.0
  outer loop
    vertex 52.78522214882896 689.1006799376318 200.0
    vertex 38.81088164428965 670.2256854976796 0.0
    vertex 38.81088164428965 670.2256854976796 200.0
  endloop
endfacet
facet normal -0.8037025195067232 0.5950313102169877 0.0
  outer loop
    vertex 38.81088164428965 670.2256854976796 0.0
    vertex 52.78522214882896 689.1006799376318 200.0
    vertex 52.78522214882896 689.1006799376318 0.0
  endloop
endfacet
facet normal 1.0 0.0 0.0
  outer loop
    vertex 1555.118400099823 744.8630364853401 0.0
    vertex 1555.118400099823 269.1630364853401 200.0
    vertex 1555.118400099823 269.1630364853401 0.0
  endloop
endfacet
facet normal 1.0 0.0 0.0
  outer loop
    vertex 1555.118400099823 269.1630364853401 200.0
    vertex 1555.118400099823 744.8630364853401 0.0
    vertex 1555.118400099823 744.8630364853401 200.0
  endloop
endfacet
facet normal 0.0 1.0 0.0
  outer loop
    vertex 177.418400099823 744.8630364853401 200.0
    vertex 1555.118400099823 744.8630364853401 0.0
    vertex 177.418400099823 744.8630364853401 0.0
  endloop
endfacet
facet normal 0.0 1.0 0.0
  outer loop
    vertex 1555.118400099823 744.8630364853401 0.0
    vertex 177.418400099823 744.8630364853401 200.0
    vertex 1555.118400099823 744.8630364853401 200.0
  endloop
endfacet
facet normal -0.34049516130452806 0.940246268340483 0.0
  outer loop
    vertex 108.87382702324469 730.9018841716859 200.0
    vertex 130.95555833099866 738.8984303071865 0.0
    vertex 108.87382702324469 730.9018841716859 0.0
  endloop
endfacet
facet normal -0.34049516130452806 0.940246268340483 0.0
  outer loop
    vertex 130.95555833099866 738.8984303071865 0.0
    vertex 108.87382702324469 730.9018841716859 200.0
    vertex 130.95555833099866 738.8984303071865 200.0
  endloop
endfacet
facet normal 0.1724931080207865 -0.9850107246549804 0.0
  outer loop
    vertex 177.418400099823 708.3630364853401 200.0
    vertex 159.69322035939035 705.259038460623 0.0
    vertex 177.418400099823 708.3630364853401 0.0
  endloop
endfacet
facet normal 0.1724931080207865 -0.9850107246549804 0.0
  outer loop
    vertex 159.69322035939035 705.259038460623 0.0
    vertex 177.418400099823 708.3630364853401 200.0
    vertex 159.69322035939035 705.259038460623 200.0
  endloop
endfacet
facet normal -0.7082241834581123 0.7059876103481492 0.0
  outer loop
    vertex 69.3653769904176 705.7333608121623 200.0
    vertex 52.78522214882896 689.1006799376318 0.0
    vertex 52.78522214882896 689.1006799376318 200.0
  endloop
endfacet
facet normal -0.7082241834581123 0.7059876103481492 0.0
  outer loop
    vertex 52.78522214882896 689.1006799376318 0.0
    vertex 69.3653769904176 705.7333608121623 200.0
    vertex 69.3653769904176 705.7333608121623 0.0
  endloop
endfacet
facet normal -0.054392498283265624 0.99851963232102 0.0
  outer loop
    vertex 153.96811588295904 743.5856259039948 200.0
    vertex 177.418400099823 744.8630364853401 0.0
    vertex 153.96811588295904 743.5856259039948 0.0
  endloop
endfacet
facet normal -0.054392498283265624 0.99851963232102 0.0
  outer loop
    vertex 177.418400099823 744.8630364853401 0.0
    vertex 153.96811588295904 743.5856259039948 200.0
    vertex 177.418400099823 744.8630364853401 200.0
  endloop
endfacet
facet normal -0.19958209378870184 0.9798811090325795 0.0
  outer loop
    vertex 130.95555833099866 738.8984303071865 200.0
    vertex 153.96811588295904 743.5856259039948 0.0
    vertex 130.95555833099866 738.8984303071865 0.0
  endloop
endfacet
facet normal -0.19958209378870184 0.9798811090325795 0.0
  outer loop
    vertex 153.96811588295904 743.5856259039948 0.0
    vertex 130.95555833099866 738.8984303071865 200.0
    vertex 153.96811588295904 743.5856259039948 200.0
  endloop
endfacet
facet normal -0.9413185471179035 0.3375194703299935 0.0
  outer loop
    vertex 27.74178944489582 649.5128197971942 200.0
    vertex 19.815127562879752 627.4059059679591 0.0
    vertex 19.815127562879752 627.4059059679591 200.0
  endloop
endfacet
facet normal -0.9413185471179035 0.3375194703299935 0.0
  outer loop
    vertex 19.815127562879752 627.4059059679591 0.0
    vertex 27.74178944489582 649.5128197971942 200.0
    vertex 27.74178944489582 649.5128197971942 0.0
  endloop
endfacet
facet normal -0.8819595895852785 0.4713250283387965 0.0
  outer loop
    vertex 38.81088164428965 670.2256854976796 200.0
    vertex 27.74178944489582 649.5128197971942 0.0
    vertex 27.74178944489582 649.5128197971942 200.0
  endloop
endfacet
facet normal -0.8819595895852785 0.4713250283387965 0.0
  outer loop
    vertex 27.74178944489582 649.5128197971942 0.0
    vertex 38.81088164428965 670.2256854976796 200.0
    vertex 38.81088164428965 670.2256854976796 0.0
  endloop
endfacet
endsolid CHANCEEXTRUDE
